<svg width="142" height="16" viewBox="0 0 142 16" fill="none" xmlns="http://www.w3.org/2000/svg">
<path d="M118.365 13.561V2.44627C118.365 1.88064 118.577 1.39042 119.001 0.97562C119.435 0.551392 119.935 0.339278 120.5 0.339278C121.066 0.339278 121.561 0.52311 121.985 0.890774C122.409 1.25844 122.622 1.72037 122.622 2.27658V3.53512L122.127 2.8705H122.579C123.107 2.07861 123.838 1.4517 124.771 0.989759C125.704 0.518396 126.788 0.282715 128.023 0.282715C129.852 0.282715 131.285 0.787074 132.322 1.79579C133.359 2.80451 133.878 4.22803 133.878 6.06635V13.561C133.878 14.1549 133.661 14.664 133.227 15.0882C132.803 15.5125 132.294 15.7246 131.7 15.7246C131.106 15.7246 130.597 15.5125 130.173 15.0882C129.749 14.664 129.536 14.1549 129.536 13.561V7.11277C129.536 6.15119 129.277 5.38758 128.759 4.82195C128.24 4.24688 127.444 3.95935 126.369 3.95935C125.294 3.95935 124.417 4.27516 123.739 4.90679C123.06 5.52899 122.721 6.35859 122.721 7.39559V13.561C122.721 14.1549 122.504 14.664 122.07 15.0882C121.646 15.5125 121.137 15.7246 120.543 15.7246C119.949 15.7246 119.435 15.5125 119.001 15.0882C118.577 14.664 118.365 14.1549 118.365 13.561Z" fill="white"/>
<path d="M106.6 15.7812C104.526 15.7812 102.791 15.06 101.396 13.6176C100.01 12.1752 99.3173 10.3416 99.3173 8.11678C99.3173 5.84481 100.024 3.97349 101.438 2.50284C102.853 1.02276 104.625 0.282715 106.755 0.282715C107.783 0.282715 108.759 0.485401 109.683 0.890774C110.606 1.29615 111.351 1.89478 111.917 2.68667H112.553L111.634 3.63411V1.85236C111.634 1.47526 111.832 1.13588 112.228 0.834211C112.624 0.523111 113.091 0.367561 113.628 0.367561C114.25 0.367561 114.783 0.593815 115.226 1.04632C115.669 1.49883 115.89 2.03147 115.89 2.64425V13.66C115.89 14.2162 115.683 14.697 115.268 15.1024C114.863 15.4983 114.387 15.6963 113.84 15.6963C113.274 15.6963 112.779 15.4936 112.355 15.0882C111.94 14.6734 111.733 14.1738 111.733 13.5893V11.6379L113.133 13.2216H112.072C111.573 14.023 110.837 14.6499 109.866 15.1024C108.905 15.5549 107.816 15.7812 106.6 15.7812ZM107.632 12.2318C108.867 12.2318 109.871 11.8358 110.644 11.0439C111.427 10.2521 111.818 9.26691 111.818 8.0885C111.818 6.87238 111.417 5.88252 110.616 5.11891C109.824 4.34587 108.829 3.95935 107.632 3.95935C106.388 3.95935 105.365 4.33644 104.564 5.09062C103.772 5.84481 103.376 6.8441 103.376 8.0885C103.376 9.34232 103.776 10.3463 104.578 11.1005C105.388 11.8547 106.407 12.2318 107.632 12.2318Z" fill="white"/>
<path d="M94.7467 15.7242C94.1151 15.7242 93.5919 15.5215 93.1771 15.1161C92.7717 14.7013 92.569 14.1875 92.569 13.5748V2.48829C92.569 1.9038 92.7811 1.39944 93.2054 0.97521C93.639 0.550982 94.1528 0.338867 94.7467 0.338867C95.3406 0.338867 95.8497 0.550982 96.2739 0.97521C96.6982 1.39944 96.9103 1.9038 96.9103 2.48829V13.5748C96.9103 14.1875 96.7076 14.7013 96.3022 15.1161C95.8968 15.5215 95.3783 15.7242 94.7467 15.7242Z" fill="white"/>
<path d="M82.9286 15.7953C81.6559 15.7953 80.5671 15.6868 79.662 15.47C78.7664 15.2532 77.9793 14.9374 77.3005 14.5226C76.6217 14.1078 76.1504 13.7118 75.8864 13.3347C75.6224 12.9482 75.5093 12.5617 75.547 12.1752C75.5942 11.7887 75.778 11.4634 76.0985 11.1995C76.4191 10.9355 76.7632 10.7988 77.1308 10.7894C77.4985 10.7799 77.8331 10.9025 78.1348 11.157C78.4365 11.4021 78.8136 11.6473 79.2661 11.8924C79.7186 12.128 80.2277 12.3166 80.7933 12.458C81.3589 12.59 82.033 12.656 82.8155 12.656C83.7959 12.656 84.5265 12.5381 85.0073 12.3024C85.4975 12.0573 85.7426 11.718 85.7426 11.2843C85.7426 10.8035 85.474 10.45 84.9366 10.2237C84.3992 9.98805 83.2915 9.72409 81.6135 9.43184C79.6432 9.06418 78.2102 8.52683 77.3146 7.81978C76.4191 7.11274 75.9713 6.13701 75.9713 4.89261C75.9713 3.41253 76.6217 2.27183 77.9227 1.47051C79.2237 0.659768 80.9347 0.254395 83.0559 0.254395C84.074 0.254395 84.9696 0.339241 85.7426 0.508932C86.5251 0.669195 87.2086 0.900163 87.7931 1.20184C88.3775 1.49408 88.8206 1.81461 89.1223 2.16342C89.424 2.5028 89.5701 2.86575 89.5607 3.25227C89.5607 3.62936 89.4476 3.9546 89.2213 4.22799C88.9762 4.51081 88.6651 4.69464 88.288 4.77949C87.9109 4.86433 87.5574 4.81248 87.2274 4.62394C86.8975 4.43539 86.5204 4.2327 86.0962 4.01588C85.6814 3.79905 85.2383 3.6435 84.7669 3.54923C84.2955 3.44553 83.7676 3.39368 83.1831 3.39368C82.3441 3.39368 81.7078 3.51152 81.2741 3.7472C80.8404 3.97345 80.6236 4.27041 80.6236 4.63808C80.6236 5.05288 80.8499 5.3734 81.3024 5.59966C81.7643 5.82591 82.8815 6.07574 84.6538 6.34913C86.6806 6.69794 88.1513 7.22115 89.0657 7.91877C89.9896 8.61639 90.4515 9.63924 90.4515 10.9873C90.4515 12.4674 89.7681 13.6411 88.4011 14.5084C87.0436 15.3663 85.2194 15.7953 82.9286 15.7953Z" fill="white"/>
<path d="M64.9856 10.2159L59.8853 3.40496C59.3256 2.70532 59.2101 2.00568 59.539 1.30604C59.8748 0.59941 60.4415 0.246094 61.2391 0.246094C61.6029 0.246094 61.9212 0.333548 62.1941 0.508457C62.474 0.676369 62.7153 0.889759 62.9182 1.14863L66.6648 6.09157L66.9901 6.57432H67.0006L67.305 6.10206L70.9676 1.16962C71.1565 0.903753 71.3908 0.683366 71.6707 0.508457C71.9505 0.333548 72.2759 0.246094 72.6467 0.246094C73.4303 0.246094 73.9865 0.602909 74.3153 1.31654C74.6441 2.02317 74.5462 2.69133 74.0215 3.321L68.7007 10.2159H64.9856ZM66.8642 15.7046C66.2975 15.7046 65.8112 15.5052 65.4054 15.1064C65.0066 14.7076 64.8072 14.2284 64.8072 13.6686V8.28493H68.9211V13.6686C68.9211 14.2284 68.7182 14.7076 68.3124 15.1064C67.9066 15.5052 67.4239 15.7046 66.8642 15.7046Z" fill="white"/>
<path d="M45.987 15.7147C45.4132 15.7147 44.9165 15.5118 44.4967 15.106C44.0769 14.7002 43.8671 14.2139 43.8671 13.6472V2.7014C43.8671 2.08572 44.0979 1.5575 44.5597 1.11672C45.0215 0.675953 45.5707 0.455566 46.2073 0.455566H51.6015C53.6025 0.455566 55.1487 0.896338 56.2401 1.77788C57.3316 2.65943 57.8773 3.8768 57.8773 5.42999C57.8773 6.85725 57.3491 8.02215 56.2926 8.92468C55.2432 9.82022 53.7389 10.268 51.78 10.268H45.7036V7.43445H51.1713C52.0388 7.43445 52.6755 7.27354 53.0813 6.9517C53.4941 6.62287 53.7005 6.15062 53.7005 5.53494C53.7005 4.94724 53.4906 4.48898 53.0708 4.16015C52.651 3.83132 52.0143 3.6669 51.1608 3.6669H48.1173V13.6472C48.1173 14.2139 47.9075 14.7002 47.4877 15.106C47.0679 15.5118 46.5677 15.7147 45.987 15.7147ZM56.3031 15.6937C56.0023 15.6937 55.7014 15.6202 55.4006 15.4733C55.1067 15.3194 54.8479 15.106 54.624 14.8331L50.0169 9.04012L54.5715 8.49441L57.6674 12.3354C58.3391 13.0211 58.5 13.7522 58.1502 14.5288C57.8003 15.3054 57.1847 15.6937 56.3031 15.6937Z" fill="white"/>
<path d="M31.3924 15.7807C29.6012 15.7807 28.1871 15.2858 27.1501 14.2959C26.1131 13.2967 25.5946 11.9203 25.5946 10.1668V2.50243C25.5946 1.90851 25.8067 1.39944 26.231 0.97521C26.6552 0.550982 27.1643 0.338867 27.7582 0.338867C28.3521 0.338867 28.8612 0.550982 29.2854 0.97521C29.7191 1.39944 29.9359 1.90851 29.9359 2.50243V8.96482C29.9359 9.97354 30.1904 10.7513 30.6995 11.2981C31.218 11.8449 31.9863 12.1182 33.0045 12.1182C34.1169 12.1182 34.9983 11.7836 35.6488 11.1142C36.2993 10.4449 36.6245 9.60116 36.6245 8.58302V2.50243C36.6245 1.90851 36.8366 1.39944 37.2609 0.97521C37.6945 0.550982 38.2083 0.338867 38.8022 0.338867C39.3961 0.338867 39.9052 0.550982 40.3294 0.97521C40.7537 1.39944 40.9658 1.90851 40.9658 2.50243V13.603C40.9658 14.1498 40.7584 14.6353 40.3436 15.0596C39.9382 15.4744 39.448 15.6818 38.8729 15.6818C38.2696 15.6818 37.7652 15.4979 37.3599 15.1303C36.9545 14.7626 36.7518 14.3902 36.7518 14.0131V11.1284L38.5477 13.1647H36.7801C36.2427 14.0037 35.5263 14.6495 34.6307 15.102C33.7351 15.5545 32.6556 15.7807 31.3924 15.7807Z" fill="white"/>
<path d="M15.9974 0.35305C15.3375 0.35305 14.7624 0.532167 14.2722 0.890403C13.782 1.24864 13.3907 1.72 13.0985 2.30449L8.20573 12.8678C7.85692 13.5465 7.87577 14.2017 8.26229 14.8333C8.65823 15.4744 9.2333 15.7949 9.98748 15.7949C10.4777 15.7949 10.8925 15.6488 11.2319 15.3566C11.5807 15.0737 11.8164 14.7673 11.9389 14.4374L15.5873 6.4902L16.0539 5.10439H16.0681L16.5489 6.47606L20.1689 14.4233C20.3103 14.8003 20.5602 15.1209 20.9184 15.3848C21.2766 15.6582 21.682 15.7949 22.1345 15.7949C22.8793 15.7949 23.4402 15.4838 23.8173 14.8616C24.1944 14.2488 24.1991 13.5889 23.8314 12.8819L18.8821 2.27621C18.5899 1.70115 18.2033 1.2345 17.7226 0.876261C17.2418 0.527452 16.6667 0.35305 15.9974 0.35305Z" fill="white"/>
<path d="M3.75793 0.0464822C4.20086 -0.0600539 4.62612 0.0177348 5.01229 0.267583C5.40047 0.513045 5.65001 0.870599 5.75237 1.32067C5.86726 1.794 5.75072 2.2533 5.455 2.67735C5.2206 3.01524 4.94421 3.48514 4.6252 4.09199C4.3207 4.6816 4.0873 5.29214 3.92476 5.9238L3.89536 6.04141C3.75389 6.63101 3.68183 7.28795 3.68182 8.01401L3.68283 8.16455C3.69308 8.91086 3.77995 9.57739 3.93988 10.1666C4.11372 10.8012 4.34761 11.3962 4.64116 11.9522C4.94334 12.5245 5.21502 12.9843 5.456 13.3349C5.75559 13.765 5.86164 14.235 5.73473 14.7215L5.73456 14.7213C5.61863 15.1929 5.34362 15.556 4.92005 15.7882L4.9182 15.7892C4.51188 16.0087 4.08391 16.0612 3.65544 15.9253L3.65443 15.9251C3.6531 15.9247 3.65174 15.9243 3.6504 15.9239C3.2173 15.7906 2.83056 15.4483 2.47954 14.9743C2.47902 14.9736 2.47855 14.9729 2.47803 14.9721C2.13793 14.5052 1.77462 13.9085 1.38798 13.1862L1.38748 13.1852C0.992644 12.4418 0.682956 11.6499 0.458048 10.8104C0.230659 9.96159 0.118672 9.02858 0.118668 8.01401C0.118673 6.94366 0.236125 5.97565 0.475353 5.11349L0.475689 5.11198C0.716864 4.25727 1.03709 3.45534 1.43704 2.70709C1.82938 1.96747 2.19753 1.37241 2.54187 0.929206L2.54221 0.928702C2.89917 0.470798 3.30136 0.150613 3.75793 0.0464822ZM136.941 0.208612C137.357 -0.00906033 137.793 -0.0604709 138.229 0.0736998C138.23 0.0739802 138.231 0.0742575 138.232 0.0745399C138.233 0.0747472 138.233 0.0750037 138.234 0.0752119C138.676 0.207087 139.07 0.546868 139.428 1.02144C139.785 1.48917 140.163 2.08672 140.562 2.80974C140.971 3.54858 141.29 4.34147 141.523 5.18742C141.763 6.03709 141.881 6.97077 141.881 7.98579L141.88 8.18572C141.865 9.17825 141.741 10.0831 141.505 10.8974L141.505 10.8976C141.261 11.7485 140.93 12.5516 140.511 13.306L140.511 13.3058C140.106 14.0405 139.723 14.6334 139.362 15.077L139.362 15.0768C138.999 15.5341 138.59 15.8507 138.125 15.9537L138.125 15.9538C137.674 16.0594 137.24 15.983 136.845 15.7347C136.447 15.4907 136.186 15.1338 136.074 14.6805C136.073 14.6792 136.073 14.678 136.073 14.6768C135.961 14.2029 136.082 13.7459 136.382 13.3268L136.382 13.326C136.629 12.9836 136.913 12.512 137.237 11.9061L137.238 11.9039C137.558 11.3141 137.801 10.7066 137.968 10.0814C138.134 9.45698 138.219 8.75913 138.219 7.98579C138.219 7.17878 138.128 6.46611 137.953 5.8445L137.952 5.84383C137.773 5.20423 137.532 4.60707 137.229 4.05167C136.918 3.47966 136.638 3.02354 136.39 2.67953C136.39 2.67886 136.389 2.67819 136.389 2.67752C136.091 2.25735 135.974 1.80001 136.08 1.32638L136.092 1.27699C136.218 0.802108 136.505 0.440087 136.939 0.20962L136.941 0.208612Z" fill="white"/>
</svg>
