<svg width="231" height="16" viewBox="0 0 231 16" fill="none" xmlns="http://www.w3.org/2000/svg">
<path d="M110.974 13.5405V2.42577C110.974 1.86013 111.186 1.36991 111.61 0.955112C112.044 0.530884 112.544 0.31877 113.109 0.31877C113.675 0.31877 114.17 0.502602 114.594 0.870266C115.018 1.23793 115.231 1.69987 115.231 2.25608V3.51462L114.736 2.84999H115.188C115.716 2.0581 116.447 1.43119 117.38 0.969252C118.313 0.497888 119.397 0.262207 120.632 0.262207C122.461 0.262207 123.894 0.766566 124.931 1.77528C125.968 2.784 126.487 4.20752 126.487 6.04584V13.5405C126.487 14.1344 126.27 14.6435 125.836 15.0677C125.412 15.492 124.903 15.7041 124.309 15.7041C123.715 15.7041 123.206 15.492 122.782 15.0677C122.358 14.6435 122.145 14.1344 122.145 13.5405V7.09227C122.145 6.13068 121.886 5.36708 121.368 4.80144C120.849 4.22638 120.053 3.93884 118.978 3.93884C117.903 3.93884 117.026 4.25466 116.348 4.88628C115.669 5.50848 115.33 6.33808 115.33 7.37508V13.5405C115.33 14.1344 115.113 14.6435 114.679 15.0677C114.255 15.492 113.746 15.7041 113.152 15.7041C112.558 15.7041 112.044 15.492 111.61 15.0677C111.186 14.6435 110.974 14.1344 110.974 13.5405Z" fill="white"/>
<path d="M99.2089 15.7606C97.1349 15.7606 95.4002 15.0395 94.005 13.5971C92.6192 12.1547 91.9263 10.3211 91.9263 8.09627C91.9263 5.8243 92.6333 3.95298 94.0474 2.48233C95.4615 1.00225 97.2338 0.262207 99.3644 0.262207C100.392 0.262207 101.368 0.464894 102.292 0.870266C103.215 1.27564 103.96 1.87427 104.526 2.66616H105.162L104.243 3.6136V1.83185C104.243 1.45476 104.441 1.11538 104.837 0.813703C105.233 0.502603 105.7 0.347053 106.237 0.347053C106.859 0.347053 107.392 0.573307 107.835 1.02582C108.278 1.47832 108.499 2.01097 108.499 2.62374V13.6395C108.499 14.1957 108.292 14.6765 107.877 15.0819C107.472 15.4778 106.996 15.6758 106.449 15.6758C105.883 15.6758 105.388 15.4731 104.964 15.0677C104.549 14.6529 104.342 14.1533 104.342 13.5688V11.6174L105.742 13.2011H104.681C104.182 14.0025 103.446 14.6294 102.475 15.0819C101.514 15.5344 100.425 15.7606 99.2089 15.7606ZM100.241 12.2113C101.476 12.2113 102.48 11.8153 103.253 11.0234C104.036 10.2315 104.427 9.2464 104.427 8.06799C104.427 6.85187 104.026 5.86201 103.225 5.0984C102.433 4.32536 101.438 3.93884 100.241 3.93884C98.9967 3.93884 97.9739 4.31593 97.1726 5.07012C96.3807 5.8243 95.9847 6.82359 95.9847 8.06799C95.9847 9.32182 96.3854 10.3258 97.1867 11.08C97.9974 11.8342 99.0156 12.2113 100.241 12.2113Z" fill="white"/>
<path d="M87.3557 15.7037C86.724 15.7037 86.2008 15.501 85.786 15.0956C85.3806 14.6808 85.178 14.167 85.178 13.5543V2.46778C85.178 1.88329 85.3901 1.37893 85.8143 0.954702C86.248 0.530474 86.7617 0.318359 87.3557 0.318359C87.9496 0.318359 88.4586 0.530474 88.8829 0.954702C89.3071 1.37893 89.5192 1.88329 89.5192 2.46778V13.5543C89.5192 14.167 89.3165 14.6808 88.9112 15.0956C88.5058 15.501 87.9873 15.7037 87.3557 15.7037Z" fill="white"/>
<path d="M75.5375 15.7747C74.2649 15.7747 73.176 15.6663 72.271 15.4495C71.3754 15.2327 70.5882 14.9169 69.9095 14.5021C69.2307 14.0873 68.7593 13.6913 68.4954 13.3142C68.2314 12.9277 68.1183 12.5412 68.156 12.1547C68.2031 11.7682 68.387 11.4429 68.7075 11.179C69.028 10.915 69.3721 10.7783 69.7398 10.7689C70.1074 10.7594 70.4421 10.882 70.7438 11.1365C71.0454 11.3816 71.4225 11.6267 71.875 11.8719C72.3276 12.1075 72.8366 12.2961 73.4023 12.4375C73.9679 12.5695 74.6419 12.6355 75.4244 12.6355C76.4048 12.6355 77.1355 12.5176 77.6162 12.2819C78.1065 12.0368 78.3516 11.6975 78.3516 11.2638C78.3516 10.783 78.0829 10.4295 77.5455 10.2032C77.0082 9.96755 75.9005 9.70358 74.2224 9.41134C72.2521 9.04367 70.8192 8.50632 69.9236 7.79927C69.028 7.09223 68.5802 6.11651 68.5802 4.87211C68.5802 3.39202 69.2307 2.25132 70.5317 1.45001C71.8326 0.63926 73.5437 0.233887 75.6648 0.233887C76.6829 0.233887 77.5785 0.318733 78.3516 0.488424C79.134 0.648688 79.8175 0.879655 80.402 1.18133C80.9865 1.47357 81.4296 1.7941 81.7313 2.14291C82.0329 2.48229 82.1791 2.84524 82.1696 3.23176C82.1696 3.60885 82.0565 3.93409 81.8302 4.20748C81.5851 4.4903 81.274 4.67413 80.8969 4.75898C80.5198 4.84382 80.1663 4.79197 79.8364 4.60343C79.5064 4.41488 79.1293 4.2122 78.7051 3.99537C78.2903 3.77854 77.8472 3.62299 77.3759 3.52872C76.9045 3.42502 76.3766 3.37317 75.7921 3.37317C74.953 3.37317 74.3167 3.49101 73.883 3.72669C73.4494 3.95295 73.2326 4.24991 73.2326 4.61757C73.2326 5.03237 73.4588 5.3529 73.9113 5.57915C74.3733 5.80541 75.4904 6.05523 77.2627 6.32862C79.2896 6.67743 80.7602 7.20064 81.6747 7.89826C82.5986 8.59588 83.0605 9.61874 83.0605 10.9668C83.0605 12.4469 82.377 13.6206 81.0101 14.4879C79.6525 15.3458 77.8284 15.7747 75.5375 15.7747Z" fill="white"/>
<path d="M57.5946 10.1954L52.4942 3.38445C51.9345 2.68481 51.8191 1.98517 52.1479 1.28554C52.4837 0.578903 53.0505 0.225586 53.848 0.225586C54.2119 0.225586 54.5302 0.31304 54.803 0.487949C55.0829 0.655862 55.3243 0.869251 55.5272 1.12812L59.2737 6.07106L59.5991 6.55381H59.6096L59.9139 6.08155L63.5765 1.14911C63.7654 0.883245 63.9998 0.662858 64.2796 0.487949C64.5595 0.31304 64.8848 0.225586 65.2556 0.225586C66.0392 0.225586 66.5954 0.582401 66.9243 1.29603C67.2531 2.00267 67.1552 2.67082 66.6304 3.30049L61.3097 10.1954H57.5946ZM59.4731 15.6841C58.9064 15.6841 58.4202 15.4847 58.0144 15.0859C57.6156 14.6871 57.4162 14.2078 57.4162 13.6481V8.26442H61.5301V13.6481C61.5301 14.2078 61.3272 14.6871 60.9214 15.0859C60.5156 15.4847 60.0328 15.6841 59.4731 15.6841Z" fill="white"/>
<path d="M38.5959 15.6942C38.0222 15.6942 37.5255 15.4913 37.1057 15.0855C36.6859 14.6797 36.476 14.1934 36.476 13.6267V2.6809C36.476 2.06521 36.7069 1.53699 37.1686 1.09622C37.6304 0.655445 38.1796 0.435059 38.8163 0.435059H44.2105C46.2115 0.435059 47.7577 0.87583 48.8491 1.75737C49.9405 2.63892 50.4862 3.85629 50.4862 5.40948C50.4862 6.83675 49.958 8.00164 48.9016 8.90417C47.8521 9.79971 46.3479 10.2475 44.3889 10.2475H38.3125V7.41395H43.7802C44.6478 7.41395 45.2844 7.25303 45.6902 6.9312C46.103 6.60237 46.3094 6.13011 46.3094 5.51443C46.3094 4.92673 46.0995 4.46847 45.6797 4.13964C45.26 3.81081 44.6233 3.6464 43.7697 3.6464H40.7263V13.6267C40.7263 14.1934 40.5164 14.6797 40.0966 15.0855C39.6768 15.4913 39.1766 15.6942 38.5959 15.6942ZM48.9121 15.6732C48.6112 15.6732 48.3104 15.5997 48.0095 15.4528C47.7157 15.2989 47.4568 15.0855 47.2329 14.8126L42.6258 9.01962L47.1805 8.4739L50.2764 12.3149C50.948 13.0006 51.1089 13.7317 50.7591 14.5083C50.4093 15.2849 49.7936 15.6732 48.9121 15.6732Z" fill="white"/>
<path d="M24.0014 15.7602C22.2102 15.7602 20.7961 15.2653 19.7591 14.2754C18.7221 13.2761 18.2036 11.8998 18.2036 10.1463V2.48192C18.2036 1.888 18.4157 1.37893 18.8399 0.954702C19.2642 0.530474 19.7732 0.318359 20.3671 0.318359C20.9611 0.318359 21.4701 0.530474 21.8944 0.954702C22.328 1.37893 22.5448 1.888 22.5448 2.48192V8.94431C22.5448 9.95303 22.7994 10.7308 23.3085 11.2776C23.827 11.8243 24.5953 12.0977 25.6134 12.0977C26.7258 12.0977 27.6073 11.7631 28.2578 11.0937C28.9083 10.4244 29.2335 9.58065 29.2335 8.56251V2.48192C29.2335 1.888 29.4456 1.37893 29.8698 0.954702C30.3035 0.530474 30.8173 0.318359 31.4112 0.318359C32.0051 0.318359 32.5142 0.530474 32.9384 0.954702C33.3626 1.37893 33.5748 1.888 33.5748 2.48192V13.5825C33.5748 14.1293 33.3673 14.6148 32.9526 15.039C32.5472 15.4538 32.057 15.6612 31.4819 15.6612C30.8786 15.6612 30.3742 15.4774 29.9688 15.1098C29.5634 14.7421 29.3608 14.3697 29.3608 13.9926V11.1079L31.1567 13.1442H29.389C28.8517 13.9832 28.1352 14.629 27.2396 15.0815C26.344 15.534 25.2646 15.7602 24.0014 15.7602Z" fill="white"/>
<path d="M8.60633 0.332542C7.94642 0.332542 7.37136 0.511659 6.88114 0.869895C6.39092 1.22813 5.99969 1.6995 5.70744 2.28399L0.814689 12.8472C0.46588 13.526 0.484734 14.1812 0.871252 14.8128C1.2672 15.4539 1.84226 15.7744 2.59644 15.7744C3.08666 15.7744 3.50146 15.6283 3.84084 15.336C4.18965 15.0532 4.42533 14.7468 4.54789 14.4169L8.19624 6.4697L8.66289 5.08389H8.67703L9.15782 6.45555L12.7779 14.4027C12.9193 14.7798 13.1691 15.1004 13.5274 15.3643C13.8856 15.6377 14.291 15.7744 14.7435 15.7744C15.4882 15.7744 16.0492 15.4633 16.4263 14.8411C16.8033 14.2283 16.8081 13.5684 16.4404 12.8614L11.4911 2.2557C11.1988 1.68064 10.8123 1.21399 10.3315 0.855754C9.85073 0.506945 9.27567 0.332542 8.60633 0.332542Z" fill="white"/>
<path d="M134.126 0.0464822C134.569 -0.0600539 134.994 0.0177348 135.38 0.267583C135.768 0.513045 136.018 0.870599 136.12 1.32067C136.235 1.794 136.119 2.2533 135.823 2.67735C135.589 3.01525 135.312 3.48514 134.993 4.09199C134.689 4.6816 134.455 5.29214 134.293 5.9238L134.263 6.04141C134.122 6.63101 134.05 7.28795 134.05 8.01401L134.051 8.16455C134.061 8.91086 134.148 9.57739 134.308 10.1666C134.482 10.8012 134.716 11.3962 135.009 11.9522C135.311 12.5245 135.583 12.9843 135.824 13.3349C136.124 13.765 136.23 14.235 136.103 14.7215C135.987 15.1931 135.712 15.556 135.288 15.7882L135.286 15.7892C134.88 16.0087 134.452 16.0612 134.023 15.9253L134.022 15.9251L134.018 15.9239C133.585 15.7906 133.199 15.4483 132.848 14.9743L132.846 14.9721C132.506 14.5052 132.143 13.9085 131.756 13.1862L131.755 13.1852C131.361 12.4418 131.051 11.6499 130.826 10.8104C130.599 9.96159 130.487 9.02858 130.487 8.01401C130.487 6.94366 130.604 5.97565 130.843 5.11349L130.844 5.11198C131.085 4.25727 131.405 3.45534 131.805 2.70709C132.197 1.96747 132.566 1.37241 132.91 0.929206C133.267 0.471302 133.669 0.150613 134.126 0.0464822Z" fill="white"/>
<path d="M214.282 15.7503C213.047 15.7503 211.99 15.6425 211.112 15.4269C210.242 15.2114 209.478 14.8974 208.82 14.485C208.161 14.0727 207.703 13.679 207.447 13.3041C207.191 12.9199 207.081 12.5356 207.118 12.1514C207.163 11.7671 207.342 11.4438 207.653 11.1814C207.964 10.9189 208.298 10.783 208.655 10.7737C209.012 10.7643 209.337 10.8861 209.629 11.1392C209.922 11.3829 210.288 11.6265 210.727 11.8702C211.167 12.1045 211.661 12.2919 212.21 12.4325C212.759 12.5637 213.413 12.6293 214.172 12.6293C215.124 12.6293 215.833 12.5122 216.3 12.2779C216.776 12.0342 217.014 11.6968 217.014 11.2657C217.014 10.7877 216.753 10.4363 216.231 10.2113C215.71 9.97703 214.634 9.71461 213.006 9.42407C211.093 9.05856 209.703 8.52435 208.833 7.82144C207.964 7.11853 207.529 6.14851 207.529 4.91139C207.529 3.43996 208.161 2.30593 209.424 1.5093C210.686 0.703296 212.347 0.300293 214.406 0.300293C215.394 0.300293 216.263 0.384643 217.014 0.553342C217.773 0.712668 218.436 0.942285 219.004 1.24219C219.571 1.53273 220.001 1.85138 220.294 2.19815C220.587 2.53555 220.728 2.89638 220.719 3.28063C220.719 3.65552 220.61 3.97886 220.39 4.25065C220.152 4.53182 219.85 4.71457 219.484 4.79892C219.118 4.88327 218.775 4.83172 218.455 4.64428C218.134 4.45684 217.768 4.25534 217.357 4.03978C216.954 3.82422 216.524 3.66958 216.066 3.57586C215.609 3.47276 215.097 3.42122 214.529 3.42122C213.715 3.42122 213.097 3.53837 212.676 3.77267C212.255 3.9976 212.045 4.29283 212.045 4.65834C212.045 5.07071 212.265 5.38937 212.704 5.6143C213.152 5.83923 214.236 6.08759 215.957 6.35938C217.924 6.70615 219.351 7.22631 220.239 7.91984C221.136 8.61338 221.584 9.63026 221.584 10.9705C221.584 12.4419 220.921 13.6087 219.594 14.471C218.276 15.3238 216.506 15.7503 214.282 15.7503Z" fill="white"/>
<path d="M194.538 15.4407C193.934 15.4407 193.414 15.2251 192.98 14.7938C192.552 14.3556 192.338 13.834 192.338 13.2288V2.30529C192.338 1.74885 192.535 1.2724 192.929 0.875943C193.322 0.479481 193.791 0.28125 194.334 0.28125C194.884 0.28125 195.353 0.479481 195.74 0.875943C196.134 1.2724 196.331 1.74885 196.331 2.30529V11.8517H203.692C204.174 11.8517 204.588 12.029 204.935 12.3838C205.288 12.7385 205.464 13.1593 205.464 13.6462C205.464 14.1331 205.288 14.5539 204.935 14.9086C204.588 15.2633 204.174 15.4407 203.692 15.4407H194.538Z" fill="white"/>
<path d="M182.257 15.6911C179.846 15.6911 177.864 14.9573 176.309 13.4897C174.753 12.0221 173.976 10.1824 173.976 7.97056C173.976 5.75873 174.753 3.91901 176.309 2.4514C177.864 0.983801 179.843 0.25 182.247 0.25C184.658 0.25 186.641 0.987279 188.196 2.46184C189.757 3.9364 190.538 5.77264 190.538 7.97056C190.538 10.1615 189.754 11.9978 188.185 13.4793C186.617 14.9539 184.641 15.6911 182.257 15.6911ZM182.247 12.0082C183.496 12.0082 184.525 11.6291 185.333 10.871C186.141 10.1059 186.545 9.13908 186.545 7.97056C186.545 6.79509 186.141 5.82828 185.333 5.07014C184.525 4.31199 183.5 3.93292 182.257 3.93292C181.001 3.93292 179.969 4.31199 179.161 5.07014C178.359 5.82828 177.959 6.79509 177.959 7.97056C177.959 9.14604 178.359 10.1128 179.161 10.871C179.969 11.6291 180.997 12.0082 182.247 12.0082Z" fill="white"/>
<path d="M163.734 15.6911C161.323 15.6911 159.34 14.9573 157.785 13.4897C156.23 12.0221 155.453 10.1824 155.453 7.97056C155.453 5.75873 156.23 3.91901 157.785 2.4514C159.34 0.983801 161.32 0.25 163.724 0.25C166.134 0.25 168.117 0.987279 169.672 2.46184C171.234 3.9364 172.015 5.77264 172.015 7.97056C172.015 10.1615 171.231 11.9978 169.662 13.4793C168.093 14.9539 166.117 15.6911 163.734 15.6911ZM163.724 12.0082C164.973 12.0082 166.002 11.6291 166.81 10.871C167.618 10.1059 168.022 9.13908 168.022 7.97056C168.022 6.79509 167.618 5.82828 166.81 5.07014C166.002 4.31199 164.977 3.93292 163.734 3.93292C162.478 3.93292 161.445 4.31199 160.637 5.07014C159.836 5.82828 159.435 6.79509 159.435 7.97056C159.435 9.14604 159.836 10.1128 160.637 10.871C161.445 11.6291 162.474 12.0082 163.724 12.0082Z" fill="white"/>
<path d="M146.863 15.6599C146.32 15.6599 145.851 15.4617 145.457 15.0652C145.064 14.6688 144.867 14.1923 144.867 13.6359V2.19067H148.87V13.6359C148.87 14.1923 148.673 14.6688 148.279 15.0652C147.885 15.4617 147.413 15.6599 146.863 15.6599ZM140.936 4.08951C140.447 4.08951 140.03 3.91214 139.683 3.55741C139.337 3.20269 139.164 2.78188 139.164 2.295C139.164 1.80116 139.337 1.38035 139.683 1.03258C140.03 0.677853 140.447 0.500488 140.936 0.500488L152.718 0.500488C153.207 0.500488 153.625 0.677853 153.971 1.03258C154.324 1.38035 154.501 1.80116 154.501 2.295C154.501 2.78188 154.324 3.20269 153.971 3.55741C153.625 3.91214 153.207 4.08951 152.718 4.08951H140.936Z" fill="white"/>
<path d="M225.493 0.208603C225.909 -0.00906917 226.345 -0.0604797 226.781 0.073691L226.784 0.074531L226.786 0.0752031C227.228 0.207078 227.623 0.546859 227.98 1.02143C228.337 1.48916 228.715 2.08671 229.115 2.80973C229.523 3.54857 229.843 4.34146 230.075 5.18741C230.315 6.03709 230.433 6.97076 230.433 7.98578L230.432 8.18571C230.417 9.17824 230.294 10.0831 230.057 10.8974C229.813 11.7483 229.482 12.5515 229.064 13.306C228.658 14.0407 228.275 14.6334 227.914 15.077C227.551 15.5343 227.142 15.8507 226.677 15.9536C226.226 16.0592 225.793 15.983 225.397 15.7347C224.999 15.4906 224.738 15.1338 224.626 14.6805L224.625 14.6768C224.514 14.2029 224.634 13.7458 224.934 13.3268C225.18 12.9844 225.466 12.512 225.789 11.9061L225.79 11.9039C226.11 11.3141 226.353 10.7066 226.521 10.0814C226.686 9.45698 226.771 8.75912 226.771 7.98578C226.771 7.17877 226.68 6.4661 226.505 5.84449C226.326 5.20489 226.084 4.60706 225.782 4.05166C225.47 3.47965 225.19 3.02353 224.943 2.67952L224.941 2.67751C224.643 2.25734 224.526 1.80001 224.632 1.32637L224.644 1.27698C224.77 0.802099 225.057 0.440078 225.491 0.209611L225.493 0.208603Z" fill="white"/>
</svg>
